0
SECTION
2
HEADER
9
$INSUNITS
70
4
9
$ACADVER
1
AC1014
9
$HANDSEED
5
FFFF
0
ENDSEC
0
SECTION
2
TABLES
0
TABLE
2
VPORT
5
8
100
AcDbSymbolTable
0
ENDTAB
0
TABLE
2
LTYPE
5
5
100
AcDbSymbolTable
0
LTYPE
5
14
100
AcDbSymbolTableRecord
100
AcDbLinetypeTableRecord
2
BYBLOCK
70
0
0
LTYPE
5
15
100
AcDbSymbolTableRecord
100
AcDbLinetypeTableRecord
2
BYLAYER
70
0
0
ENDTAB
0
TABLE
2
LAYER
5
2
100
AcDbSymbolTable
70
2
0
LAYER
5
50
100
AcDbSymbolTableRecord
100
AcDbLayerTableRecord
2
0
70
0
6
CONTINUOUS
0
ENDTAB
0
TABLE
2
STYLE
5
3
100
AcDbSymbolTable
70
1
0
STYLE
5
11
100
AcDbSymbolTableRecord
100
AcDbTextStyleTableRecord
2
STANDARD
70
0
0
ENDTAB
0
TABLE
2
VIEW
5
6
100
AcDbSymbolTable
70
0
0
ENDTAB
0
TABLE
2
UCS
5
7
100
AcDbSymbolTable
70
0
0
ENDTAB
0
TABLE
2
APPID
5
9
100
AcDbSymbolTable
70
2
0
APPID
5
12
100
AcDbSymbolTableRecord
100
AcDbRegAppTableRecord
2
ACAD
70
0
0
ENDTAB
0
TABLE
2
DIMSTYLE
5
A
100
AcDbSymbolTable
70
1
0
ENDTAB
0
TABLE
2
BLOCK_RECORD
5
1
100
AcDbSymbolTable
70
1
0
BLOCK_RECORD
5
1F
100
AcDbSymbolTableRecord
100
AcDbBlockTableRecord
2
*MODEL_SPACE
0
BLOCK_RECORD
5
1B
100
AcDbSymbolTableRecord
100
AcDbBlockTableRecord
2
*PAPER_SPACE
0
ENDTAB
0
ENDSEC
0
SECTION
2
BLOCKS
0
BLOCK
5
20
100
AcDbEntity
100
AcDbBlockBegin
2
*MODEL_SPACE
0
ENDBLK
5
21
100
AcDbEntity
100
AcDbBlockEnd
0
BLOCK
5
1C
100
AcDbEntity
100
AcDbBlockBegin
2
*PAPER_SPACE
0
ENDBLK
5
1D
100
AcDbEntity
100
AcDbBlockEnd
0
ENDSEC
0
SECTION
2
ENTITIES
0
LINE
5
100
100
AcDbEntity
8
0
100
AcDbLine
10
0.019648995151313933
20
7.21979332101251
30
0
11
-0.51055768383616351
21
7.7499999999999867
31
0
0
LINE
5
101
100
AcDbEntity
8
0
100
AcDbLine
10
-0.51055768383616351
20
7.7499999999999867
30
0
11
-11.359999925494195
21
7.7499999999999858
31
0
0
ARC
5
102
100
AcDbEntity
8
0
100
AcDbCircle
10
-11.359999925494201
20
7.4499999999999877
30
0
40
0.29999999999999805
100
AcDbArc
50
89.999999999998991
51
180
0
LINE
5
103
100
AcDbEntity
8
0
100
AcDbLine
10
-11.659999925494198
20
7.4499999999999922
30
0
11
-11.659999925494198
21
7.2999999999999909
31
0
0
ARC
5
104
100
AcDbEntity
8
0
100
AcDbCircle
10
-12.409999925494191
20
7.2999999999999821
30
0
40
0.74999999999999289
100
AcDbArc
50
-90.000000000000568
51
0
0
LINE
5
105
100
AcDbEntity
8
0
100
AcDbLine
10
-12.409999925494198
20
6.5499999999999892
30
0
11
-15.249999658683784
21
6.5499999999999892
31
0
0
ARC
5
106
100
AcDbEntity
8
0
100
AcDbCircle
10
-15.249999658683784
20
6.2499999999999893
30
0
40
0.30000000000000027
100
AcDbArc
50
90
51
179.99999914622637
0
LINE
5
107
100
AcDbEntity
8
0
100
AcDbLine
10
-15.549999658683785
20
6.2500000062533578
30
0
11
-15.549999919240825
21
-6.2499999937466422
31
0
0
ARC
5
108
100
AcDbEntity
8
0
100
AcDbCircle
10
-15.249999919240821
20
-6.2500000000000053
30
0
40
0.30000000000000254
100
AcDbArc
50
179.99999914622637
51
270
0
LINE
5
109
100
AcDbEntity
8
0
100
AcDbLine
10
-15.249999919240821
20
-6.5500000000000078
30
0
11
-12.409999925494194
21
-6.5500000000000114
31
0
0
ARC
5
110
100
AcDbEntity
8
0
100
AcDbCircle
10
-12.409999925494198
20
-7.3000000000000114
30
0
40
0.74999999999999956
100
AcDbArc
50
0
51
89.99999999999973
0
LINE
5
111
100
AcDbEntity
8
0
100
AcDbLine
10
-11.659999925494198
20
-7.3000000000000114
30
0
11
-11.659999925494198
21
-7.4500002280394195
31
0
0
ARC
5
112
100
AcDbEntity
8
0
100
AcDbCircle
10
-11.359999925494201
20
-7.4500002280394213
30
0
40
0.29999999999999805
100
AcDbArc
50
180
51
270.00000055931963
0
LINE
5
113
100
AcDbEntity
8
0
100
AcDbLine
10
-11.35999992256561
20
-7.7500002280394202
30
0
11
11.700000077434392
21
-7.7500000029285987
31
0
0
ARC
5
114
100
AcDbEntity
8
0
100
AcDbCircle
10
11.700000074505805
20
-7.4500000029285962
30
0
40
0.30000000000000254
100
AcDbArc
50
270.00000055931889
51
360
0
LINE
5
115
100
AcDbEntity
8
0
100
AcDbLine
10
12.000000074505808
20
-7.4500000029285989
30
0
11
12.000000874201984
21
-6.7500011424223736
31
0
0
ARC
5
116
100
AcDbEntity
8
0
100
AcDbCircle
10
14.500000874201751
20
-6.7500000000000382
30
0
40
2.5000000000000289
100
AcDbArc
50
90.000000000000298
51
180.0000261762043
0
LINE
5
117
100
AcDbEntity
8
0
100
AcDbLine
10
14.500000874201739
20
-4.2500000000000089
30
0
11
15.266000074505808
21
-4.2500000000000089
31
0
0
ARC
5
118
100
AcDbEntity
8
0
100
AcDbCircle
10
15.26600007450581
20
-3.9500000000000113
30
0
40
0.29999999999999805
100
AcDbArc
50
-90.000000000000369
51
0
0
LINE
5
119
100
AcDbEntity
8
0
100
AcDbLine
10
15.566000074505808
20
-3.9500000000000095
30
0
11
15.566000074505805
21
3.950000000000002
31
0
0
ARC
5
120
100
AcDbEntity
8
0
100
AcDbCircle
10
15.266000074505806
20
3.9500000000000002
30
0
40
0.30000000000000027
100
AcDbArc
50
0
51
90
0
LINE
5
121
100
AcDbEntity
8
0
100
AcDbLine
10
15.266000074505806
20
4.25
30
0
11
14.500000874201744
21
4.2499999999999973
31
0
0
ARC
5
122
100
AcDbEntity
8
0
100
AcDbCircle
10
14.500000874201742
20
6.750000000000016
30
0
40
2.5000000000000187
100
AcDbArc
50
179.9999738237957
51
270.00000000000006
0
LINE
5
123
100
AcDbEntity
8
0
100
AcDbLine
10
12.000000874201984
20
6.7500011424223629
30
0
11
12.000000074505808
21
7.4499999999999922
31
0
0
ARC
5
124
100
AcDbEntity
8
0
100
AcDbCircle
10
11.700000074505805
20
7.4499999999999877
30
0
40
0.30000000000000249
100
AcDbArc
50
0
51
89.999999999999332
0
LINE
5
125
100
AcDbEntity
8
0
100
AcDbLine
10
11.700000074505809
20
7.7499999999999876
30
0
11
7.1106301470160655
21
7.7499999999999867
31
0
0
LINE
5
126
100
AcDbEntity
8
0
100
AcDbLine
10
7.1106301470160655
20
7.7499999999999867
30
0
11
6.5802938158788855
21
7.2197358983733206
31
0
0
ARC
5
127
100
AcDbEntity
8
0
100
AcDbCircle
10
6.0499998480081612
20
7.750102099822767
30
0
40
0.74999999999999489
100
AcDbArc
50
269.99999588359083
51
314.9960980158271
0
LINE
5
128
100
AcDbEntity
8
0
100
AcDbLine
10
6.0499997941244912
20
7.0001020998227741
30
0
11
0.5499999366168451
21
7.0001024949696369
31
7.1054273576010019e-14
0
ARC
5
129
100
AcDbEntity
8
0
100
AcDbCircle
10
0.54999999050050863
20
7.7501024949696342
30
0
40
0.74999999883397916
100
AcDbArc
50
224.99774085109715
51
269.99999588359134
0
CIRCLE
5
130
100
AcDbEntity
8
0
100
AcDbCircle
10
-8.9999997988343239
20
-5.4999998770654202
30
0
40
1.9500000000000006
0
CIRCLE
5
131
100
AcDbEntity
8
0
100
AcDbCircle
10
8.9999997988343239
20
5.4999998770654202
30
0
40
1.9500000000000004
0
CIRCLE
5
132
100
AcDbEntity
8
0
100
AcDbCircle
10
-7.4118600181265393
20
1.6967752458878003
30
0
40
5.0041359518612243
0
CIRCLE
5
133
100
AcDbEntity
8
0
100
AcDbCircle
10
-0.37601272991312856
20
-1.6509121891632905
30
0
40
0.89000000000000012
0
CIRCLE
5
134
100
AcDbEntity
8
0
100
AcDbCircle
10
-0.73383410319552933
20
0.75909494023678414
30
0
40
0.89000000000000012
0
CIRCLE
5
135
100
AcDbEntity
8
0
100
AcDbCircle
10
12.842912185965043
20
-1.6269967794989162
30
0
40
0.89000000000000024
0
CIRCLE
5
136
100
AcDbEntity
8
0
100
AcDbCircle
10
-13.925379457133955
20
0.75126194303212901
30
0
40
0.89000000000000012
0
ENDSEC
0
SECTION
2
OBJECTS
0
DICTIONARY
5
C
100
AcDbDictionary
3
ACAD_GROUP
350
D
3
ACAD_MLINESTYLE
350
17
0
DICTIONARY
5
D
100
AcDbDictionary
0
DICTIONARY
5
1A
330
C
100
AcDbDictionary
0
DICTIONARY
5
17
100
AcDbDictionary
0
ENDSEC
0
EOF
